<?xml version="1.0" encoding="utf-8"?>
<!-- Generator: Adobe Illustrator 21.1.0, SVG Export Plug-In . SVG Version: 6.00 Build 0)  -->
<svg version="1.1" id="bugs_vn" xmlns="http://www.w3.org/2000/svg" xmlns:xlink="http://www.w3.org/1999/xlink" x="0px" y="0px"
	 viewBox="0 0 512 512" style="enable-background:new 0 0 512 512;" xml:space="preserve">
<style type="text/css">
	.st0{fill:#EEEEEE;}
	.st1{fill:#727272;}
	.st2{fill:#BBBBBB;}
</style>
<rect class="st0" width="512" height="512"/>
<g id="Layer_2">
	<ellipse class="st1" cx="256" cy="256" rx="210" ry="231.9"/>
	<path class="st2" d="M252.7,220c-0.1,84.5-0.2,169-0.3,253.6c-2.2-0.1-4.4,0-6.5-0.1c-16.8-1-33.1-4.2-49.1-9.7
		c-15.6-5.4-30.3-12.8-43.9-22.2c-21.3-14.6-39.2-32.7-53.8-54c-10-14.5-18.1-30.1-24.4-46.6c-9-23.5-14-47.9-15.3-72.9
		c-1-21,0.6-41.8,5.1-62.3c2.9-13.3,6.7-26.3,12-38.8c1.5-3.5,2.9-7,4.6-10.7c2.6,2.6,4.9,4.9,7.3,7.2c6.1,5.7,12.5,11,19.6,15.5
		c6.9,4.4,14,8.7,21.2,12.5c5.7,3,11.9,5.7,17.9,8.2c12.6,5.2,25.5,9.2,38.9,12.3c17,4,34.1,6.5,51.4,7.4
		C242.4,219.6,247.4,219.8,252.7,220z M171.3,290.2c14.2,8.4,31.7,3,39.7-9.5c9.3-14.7,4.2-33-9.2-41.1c-15-9.2-32.8-3.6-40.7,9.4
		C152.2,263.6,156.7,281.5,171.3,290.2z M107.7,346.4c14.2,8.4,31.7,3,39.7-9.5c9.3-14.7,4.2-33-9.2-41.1c-15-9.2-32.8-3.6-40.7,9.4
		C88.5,319.9,93.1,337.8,107.7,346.4z M179.2,402.2c14.2,8.4,31.7,3,39.7-9.5c9.3-14.7,4.2-33-9.2-41.1c-15-9.2-32.8-3.6-40.7,9.4
		C160.1,375.6,164.6,393.6,179.2,402.2z"/>
	<path class="st2" d="M274.8,219.5c17.3-0.9,34.5-3.4,51.4-7.4c13.3-3.1,26.3-7,38.9-12.3c6-2.5,12.2-5.1,17.9-8.2
		c7.2-3.8,14.3-8.2,21.2-12.5c7.1-4.4,13.5-9.8,19.6-15.5c2.4-2.3,4.6-4.6,7.3-7.2c1.6,3.7,3.1,7.1,4.6,10.7
		c5.3,12.5,9.1,25.5,12,38.8c4.4,20.6,6.1,41.4,5.1,62.3c-1.3,25-6.3,49.4-15.3,72.9c-6.4,16.5-14.4,32.1-24.4,46.6
		c-14.6,21.4-32.5,39.5-53.8,54c-13.6,9.3-28.3,16.7-43.9,22.2c-15.9,5.4-32.3,8.7-49.1,9.7c-2.1,0.1-4.3,0.1-6.5,0.1
		c-0.1-84.6-0.2-169.1-0.3-253.6C264.6,219.8,269.6,219.6,274.8,219.5z M350.9,249c-8-13-25.7-18.6-40.7-9.4
		c-13.4,8.1-18.5,26.4-9.2,41.1c8,12.5,25.5,17.9,39.7,9.5C355.3,281.5,359.8,263.6,350.9,249z M414.5,305.3
		c-8-13-25.7-18.6-40.7-9.4c-13.4,8.1-18.5,26.4-9.2,41.1c8,12.5,25.5,17.9,39.7,9.5C418.9,337.8,423.5,319.9,414.5,305.3z M343,361
		c-8-13-25.7-18.6-40.7-9.4c-13.4,8.1-18.5,26.4-9.2,41.1c8,12.5,25.5,17.9,39.7,9.5C347.4,393.6,351.9,375.6,343,361z"/>
	<ellipse transform="matrix(0.866 -0.5 0.5 0.866 -19.3222 98.1901)" class="st0" cx="173.6" cy="85.2" rx="43.8" ry="28.6"/>
	<ellipse transform="matrix(0.5 -0.866 0.866 0.5 95.4752 335.6694)" class="st0" cx="338.4" cy="85.2" rx="28.6" ry="43.8"/>
</g>
</svg>
